# xmcd
#
# Track frame offsets:
#	300
#	17625
#	36975
#	52275
#	68699
#	88124
#	104324
#	121799
#	141074
#	156674
#	174824
#	197627
#	211577
#	233252
#	250427
#	267449
#	282974
#
# Disc length: 3957 seconds
#
# Revision: 2
# Processed by: cddbd v1.5.2PL0 Copyright (c) Steve Scherf et al.
# Submitted via: audiograbber 1.83.01
#
DISCID=ee0f7111
DTITLE=Various Artist - Karaoke Kurrents Dec. 2009 Disc 406
DYEAR=1900
DGENRE=
TTITLE0=Lady Antebellum - I Run To You
TTITLE1=Martina McBride - I Just Call You Mine
TTITLE2=Toby Keith - God Love Her
TTITLE3=Brooks and Dunn - Cowgirls Don't Cry
TTITLE4=Carrie Underwood - I Told You So
TTITLE5=Carrie Underwood - Home Sweet Home
TTITLE6=Zac Brown Band - Chicken Fried
TTITLE7=Zac Brown Band - Toes
TTITLE8=Zac Brown Band - Whatever It Is
TTITLE9=Darius Rucker - Alright
TTITLE10=Alan Jackson - Good Time
TTITLE11=Dierks Bentley - Sideways
TTITLE12=Sugarland - Stay
TTITLE13=Keith Urban - Kiss A Girl
TTITLE14=Keith Urban - Sweet Thing
TTITLE15=Montgomery Gentry - One In Every Crowd
TTITLE16=Jake Owen - Don't Think I Can't Love You
EXTD=
EXTT0=
EXTT1=
EXTT2=
EXTT3=
EXTT4=
EXTT5=
EXTT6=
EXTT7=
EXTT8=
EXTT9=
EXTT10=
EXTT11=
EXTT12=
EXTT13=
EXTT14=
EXTT15=
EXTT16=
PLAYORDER=
